<svg width="18" height="19" fill="none" xmlns="http://www.w3.org/2000/svg"><path d="M14.557 10.414c-.165 0-.337-.052-.502-.09a7.4 7.4 0 01-.982-.292 1.5 1.5 0 00-1.86.75l-.165.345a9.878 9.878 0 01-2.003-1.5 9.877 9.877 0 01-1.5-2.003l.345-.157a1.5 1.5 0 00.75-1.86 7.852 7.852 0 01-.292-.99 5.886 5.886 0 01-.09-.503 2.25 2.25 0 00-2.25-1.867H3.75a2.25 2.25 0 00-1.68.75 2.25 2.25 0 00-.547 1.8 14.303 14.303 0 004.057 8.25 14.302 14.302 0 008.25 4.057c.097.008.195.008.293 0a2.25 2.25 0 002.054-1.33c.13-.29.196-.603.195-.92v-2.25a2.25 2.25 0 00-1.815-2.19zm.368 4.5a.75.75 0 01-.534.718.75.75 0 01-.329.025 12.87 12.87 0 01-7.402-3.63A12.87 12.87 0 013 4.602a.75.75 0 01.442-.8.75.75 0 01.308-.063H6a.75.75 0 01.75.585c0 .203.068.413.113.615.086.393.201.779.345 1.155l-1.05.495a.75.75 0 00-.39.42.75.75 0 000 .57 10.868 10.868 0 005.25 5.25.75.75 0 00.57 0 .75.75 0 00.42-.39l.472-1.05a9.312 9.312 0 001.793.458.75.75 0 01.585.75l.067 2.317zM10.5 2.164h-.525a.753.753 0 00.127 1.5h.398a4.5 4.5 0 014.5 4.5v.398a.75.75 0 00.682.81h.06a.75.75 0 00.75-.683v-.525a6 6 0 00-5.992-6zm1.5 6a.75.75 0 101.5 0 3 3 0 00-3-3 .75.75 0 100 1.5 1.5 1.5 0 011.5 1.5z" fill="#fff"/></svg>