<svg width="16" height="16" fill="none" xmlns="http://www.w3.org/2000/svg"><g clip-path="url(#clip0_37_359)"><path fill-rule="evenodd" clip-rule="evenodd" d="M12.657 11.297c-.193.546-.96.997-1.57 1.13-.419.088-.965.158-2.803-.604-2.065-.855-4.932-3.902-4.932-5.93 0-1.032.595-2.234 1.636-2.234.5 0 .611.01.776.405.193.465.663 1.613.72 1.73.23.483-.236.766-.574 1.186-.108.126-.23.263-.094.498.136.23.606.997 1.298 1.613.892.795 1.616 1.049 1.876 1.157.192.08.423.061.564-.089.178-.193.4-.513.625-.828.16-.226.362-.254.574-.174.143.05 1.963.895 2.04 1.03.057.099.057.564-.136 1.11zM8.002 0h-.004C3.588 0 0 3.588 0 8a7.94 7.94 0 001.523 4.689L.526 15.66l3.075-.982A7.938 7.938 0 008 16c4.413 0 8-3.588 8-8s-3.588-8-7.998-8z" fill="#fff"/></g><defs><clipPath id="clip0_37_359"><path fill="#fff" d="M0 0h16v16H0z"/></clipPath></defs></svg>